<svg xmlns="http://www.w3.org/2000/svg"><symbol id="icon-1" viewBox="0 0 256 295.6"><path d="M100 181l-40.3 21.3-3.4-4.8 21-24.8h15.8l6.9 8.3zm3.4 3.8l9.8 12H80.7l22.7-12zm53.3-12.1l-20.1 24.1h-17.2l-20.1-24.1h57.4zm-4.1 12.1l22.7 12h-32.5l9.8-12zm-72.1-34.1c-2.4-5.5-2.9-11.9-2.9-18.2 0-28.4 23.4-51.6 51.8-51.6a51.7 51.7 0 0 1 51.6 51.6 57.8 57.8 0 0 1-2.9 18.2zM64 155.4h130.7v12.43H64zm114.7 17.3l21 25-3.4 4.6-40.6-21.3 7.2-8.3h15.8z"/><path d="M128 2.3L2 75.1v145.5l126 72.7 126-72.7V75.1zm76.5 196.6l-5.5 7.9a2.5 2.5 0 0 1-3.1.7l-11.5-6h-113l-11.5 6a2.6 2.6 0 0 1-3.1-.7l-5.5-7.9a2.5 2.5 0 0 1 .2-2.9l19.8-23.4h-9.7a2.3 2.3 0 0 1-2.4-2.4v-17.1a2.3 2.3 0 0 1 2.4-2.4h13.8a66.8 66.8 0 0 1-2.6-18.2 56.7 56.7 0 0 1 56.6-56.4c30.8 0 56.4 25.6 56.4 56.4a58.6 58.6 0 0 1-2.6 18.2H197a2.3 2.3 0 0 1 2.4 2.4v17.2a2.3 2.3 0 0 1-2.4 2.4h-12.1l19.6 23.4a2.5 2.5 0 0 1 0 2.8z"/></symbol><symbol id="icon-3" viewBox="0 0 256 295.6"><path d="M85.2 147.6H59.7c7.4-28.9 33-51.1 63.6-53.1zm6 0l34.4-48.3v48.3H91.2zm-29.9 22.7h64.3v26.52H61.3zm69.1 0h10.8v26.52h-10.8zm15.5 0h48.7v26.52h-48.7zm50.4-22.7h-65.9V94.3a71 71 0 0 1 65.9 53.3zm-148.6 4.7h160.6v13.14H47.7z"/><path d="M128 2.3L2 75.1v145.5l126 72.7 126-72.7V75.1zm103 168h-31.6v28.9a2.3 2.3 0 0 1-2.4 2.4H58.9a2.3 2.3 0 0 1-2.4-2.4v-28.9H25a2.4 2.4 0 1 1 0-4.8h17.9V150a2.3 2.3 0 0 1 2.4-2.4h9.3a75.8 75.8 0 0 1 73.1-58.1c.2-.2.5-.2 1 0 35.4.2 64.8 25.1 72.6 58.1h9.3a2.3 2.3 0 0 1 2.4 2.4v15.5h18a2.4 2.4 0 1 1 0 4.8z"/></symbol><symbol id="icon-2" viewBox="0 0 256 295.6"><path d="M73.8 180.4h14.7v14.46H73.8zm19.3 0H116v14.46H93.1zm27.6 0h14.7v14.46h-14.7zm19.2 0h22.9v14.46h-22.9zm38.6-49.8h-101c1.2-29.6 23.7-45.9 50.5-45.9s49.3 16.3 50.5 45.9zm-11 49.8h14.7v14.46h-14.7zM60.1 135.2h135.8v40.62H60.1z"/><path d="M128 2.3L2 75.1v145.5l126 72.7 126-72.7V75.1zm72.5 175.8a2.2 2.2 0 0 1-2.3 2.3h-11.5v14.5h11.5a2.3 2.3 0 1 1 0 4.6H57.8a2.3 2.3 0 0 1 0-4.6h11.5v-14.5H57.8a2.2 2.2 0 0 1-2.3-2.3v-45.2a2.2 2.2 0 0 1 2.3-2.3h15.1C74.1 98 98.4 80.1 128 80.1s53.9 17.9 55.1 50.5h15.1a2.2 2.2 0 0 1 2.3 2.3z"/><path fill="#fff" d="M182.8 160.2h-56a2.3 2.3 0 1 0 0 4.6h56a2.3 2.3 0 0 0 0-4.6zm0 0h-56a2.3 2.3 0 1 0 0 4.6h56a2.3 2.3 0 0 0 0-4.6zm0 0h-56a2.3 2.3 0 1 0 0 4.6h56a2.3 2.3 0 0 0 0-4.6z"/></symbol></svg>